<svg id="visual" viewBox="0 0 900 600" width="900" height="600" xmlns="http://www.w3.org/2000/svg" xmlns:xlink="http://www.w3.org/1999/xlink" version="1.1"><rect x="0" y="0" width="900" height="600" fill="#fff"></rect><defs><linearGradient id="grad1_0" x1="33.3%" y1="0%" x2="100%" y2="100%"><stop offset="20%" stop-color="#ffffff" stop-opacity="1"></stop><stop offset="80%" stop-color="#ffffff" stop-opacity="1"></stop></linearGradient></defs><defs><linearGradient id="grad2_0" x1="0%" y1="0%" x2="66.7%" y2="100%"><stop offset="20%" stop-color="#ffffff" stop-opacity="1"></stop><stop offset="80%" stop-color="#ffffff" stop-opacity="1"></stop></linearGradient></defs><g transform="translate(900, 0)"><path d="M0 486.7C-47.7 446.6 -95.4 406.5 -161.9 390.8C-228.4 375.1 -313.7 383.8 -344.2 344.2C-374.7 304.6 -350.3 216.6 -364.9 151.2C-379.6 85.7 -433.2 42.9 -486.7 0L0 0Z" fill="#4f9deb"></path></g><g transform="translate(0, 600)"><path d="M0 -486.7C69.9 -486.1 139.9 -485.4 186.3 -449.7C232.7 -414 255.5 -343.4 295.6 -295.6C335.7 -247.7 393 -222.6 427.8 -177.2C462.5 -131.7 474.6 -65.9 486.7 0L0 0Z" fill="#4f9deb"></path></g></svg>